<svg width="412" height="412" viewBox="0 0 412 412" fill="none" xmlns="http://www.w3.org/2000/svg">
<path d="M226.026 38.3454L205.975 63.469V63.7105C168.533 99.4614 145.826 137.871 145.826 193.431C145.826 199.47 146.067 205.509 146.791 211.548L101.86 238.12C98.9611 223.627 97.5117 208.891 97.5117 193.673V192.947C97.7533 119.994 131.572 48.653 205.975 1.78931L226.026 38.3454Z" fill="#00AB5E"/>
<path d="M222.403 334.023L185.926 368.324C142.203 336.195 112.491 290.54 101.862 238.121L146.793 211.549C147.277 217.105 148.243 222.42 149.21 227.733L148.968 227.975C158.872 263.244 167.327 286.433 206.219 323.393L206.943 322.909C211.774 327.017 217.089 330.883 222.403 334.023Z" fill="#00AB5E"/>
<path d="M298.738 191.499C270.398 176.77 236.143 169.599 209.161 169.599C169.719 168.634 131.96 178.589 97.2718 200.437C78.6705 212.031 61.2786 227.492 46.5439 245.851C10.7914 290.3 -1.12499 336.196 0.0828403 388.615L35.5728 388.696L48.879 356.246C66.4175 265.194 134.081 217.684 206.104 217.596C236.412 217.628 265.471 226.21 289.075 241.26C292.215 227.249 295.838 206.959 298.738 191.499Z" fill="#5BC980"/>
<path d="M411.951 388.615C411.958 388.235 411.957 387.859 411.963 387.48L394.397 358.502L363.154 356.247C345.762 359.871 334.328 362.528 314.761 362.528C281.315 362.528 249.919 352.363 223.295 334.615C222.595 334.787 221.907 334.958 221.228 335.128L185.925 368.325C192.206 372.915 199.211 377.505 206.218 381.611C263.227 414.705 338.273 421.711 411.951 388.615Z" fill="#00AB5E"/>
<path d="M363.154 356.246L411.963 387.48C412.741 335.534 401.143 289.978 365.65 245.851L365.408 246.092C351.157 227.733 333.523 212.031 314.68 200.436C309.367 197.295 304.293 194.155 298.738 191.498C295.837 206.958 292.215 227.249 289.075 241.26C324.584 263.485 352.767 302.136 363.154 356.246Z" fill="#5BC980"/>
<path d="M314.68 192.948V193.673C314.68 272.422 273.855 342.235 205.734 381.61C148.967 414.705 73.7586 421.711 0.0820312 388.615L48.879 356.246C66.2709 359.87 77.705 362.527 97.2718 362.527C237.34 362.527 336.189 187.003 205.976 63.469V1.78931C280.62 48.4114 314.438 119.994 314.68 192.948Z" fill="#7FE881"/>
<path d="M223.295 334.614C222.998 334.416 222.698 334.222 222.403 334.022L221.228 335.127C221.908 334.957 222.595 334.786 223.295 334.614Z" fill="#5BC980"/>
</svg>
