<svg width="811" height="43" viewBox="0 0 811 43" fill="none" xmlns="http://www.w3.org/2000/svg">
<path fill-rule="evenodd" clip-rule="evenodd" d="M30.4569 0.810828H0V42.1624H30.3994V34.8394H7.92398V24.6899H27.4311V17.5941H7.92398V8.13538H30.4569V0.810828ZM52.9328 31.8988L41.1176 0.810828H32.2157L48.4954 42.1624H57.3703L73.6504 0.810828H64.747L52.9328 31.8988ZM107.047 0.810828H76.5908V42.1624H106.99V34.8394H84.5142V24.6899H104.022V17.5941H84.5142V8.13538H107.047V0.810828ZM147.878 42.1624L137.62 26.8785C139.759 26.158 141.679 24.9022 143.197 23.2304C144.715 21.5585 145.781 19.5261 146.294 17.3261C146.806 15.126 146.748 12.8314 146.125 10.6601C145.502 8.48882 144.335 6.51286 142.735 4.91989C140.131 2.18051 136.707 0.810828 132.462 0.810828H112.35V42.1624H120.389V27.6876H129.177L138.542 42.1624H147.878ZM132.232 8.0778C133.1 8.04919 133.965 8.19665 134.774 8.51127C135.584 8.82589 136.322 9.30119 136.943 9.90856C137.535 10.4863 138.005 11.1775 138.324 11.9409C138.644 12.7043 138.806 13.5243 138.802 14.352C138.798 15.1796 138.628 15.998 138.301 16.7582C137.974 17.5185 137.498 18.2051 136.9 18.7771C136.234 19.3912 135.453 19.8677 134.603 20.1792C133.752 20.4906 132.848 20.631 131.944 20.5922H120.389V8.0778H132.232ZM166.032 19.18L155.368 0.810828H146.208L161.91 26.9926V42.1624H170.122V26.9926L185.739 0.810828H176.667L166.032 19.18ZM185.684 0.810828V8.13538H199.543V42.1624H207.64V8.13538H221.5V0.810828H185.684ZM251.987 17.4784H233.113V0.810828H225.016V42.1624H233.113V24.804H251.986V42.1624H260.141V0.810828H251.987L251.987 17.4784ZM274.809 42.165V0.810828H266.597V42.1624H274.809L274.809 42.165ZM308.695 27.6331L287.949 0.813424H281.264V42.165H289.361V15.2867L310.136 42.1624H316.792V0.810828H308.696V27.6305L308.695 27.6331ZM343.389 19.1826V26.1602H356.096C355.762 28.7772 354.424 31.1615 352.365 32.809C350.242 34.5672 347.51 35.4471 344.167 35.4488C339.73 35.4488 336.219 34.0883 333.636 31.3672C332.364 30.0391 331.367 28.4727 330.702 26.7578C330.036 25.0429 329.716 23.2134 329.76 21.3743C329.721 19.579 330.037 17.7938 330.69 16.1211C331.343 14.4484 332.319 12.9213 333.564 11.6273C336.099 8.95534 339.336 7.61918 343.274 7.61884C349.133 7.61884 353.224 10.0028 355.549 14.7707L363.04 12.6365C361.63 8.92574 359.084 5.75636 355.765 3.58186C352.278 1.19825 348.095 0.00626521 343.216 0.00591946C337.088 0.00591946 331.95 2.06312 327.801 6.17755C323.651 10.292 321.577 15.3754 321.577 21.4278C321.577 27.5821 323.661 32.7143 327.829 36.8242C331.998 40.9421 337.251 42.9993 343.591 42.9959C349.796 42.9959 354.829 41.1755 358.69 37.5347C362.551 33.894 364.481 29.1589 364.481 23.3296V19.1806H343.39L343.389 19.1826ZM390.761 42.165V0.810828H382.547V42.1624H390.761V42.165ZM426.015 39.297C429.083 36.8283 430.615 33.7857 430.611 30.1692C430.611 27.0574 429.666 24.664 427.777 22.9888C425.88 21.3164 423.128 19.9324 419.521 18.8367L409.261 15.5201C406.628 14.7321 405.312 13.4345 405.312 11.6273C405.312 10.3781 405.932 9.32062 407.173 8.45486C408.6 7.53677 410.276 7.08382 411.971 7.1583C414.128 7.12547 416.255 7.66212 418.138 8.71418C419.859 9.64835 421.263 11.0748 422.17 12.8113L429.689 10.6196C428.497 7.60118 426.308 5.07721 423.123 3.04766C419.759 0.971387 415.866 -0.0852838 411.914 0.00538133C407.665 0.00538133 404.125 1.16365 401.296 3.48018C398.467 5.79671 397.069 8.58917 397.104 11.8576C397.057 13.0526 397.253 14.2447 397.678 15.3621C398.104 16.4796 398.751 17.4994 399.581 18.3601C401.484 20.2665 403.845 21.6517 406.437 22.3831L416.982 25.6981C418.962 26.3153 420.365 27.0223 421.19 27.8193C421.584 28.1801 421.897 28.6194 422.11 29.109C422.324 29.5985 422.432 30.1273 422.429 30.6614C422.429 32.0617 421.698 33.2804 420.242 34.3073C418.786 35.3342 416.889 35.8476 414.562 35.8476C411.936 35.9172 409.353 35.1668 407.173 33.7005C405.164 32.3419 403.629 30.3916 402.778 28.1201L395.026 30.4591C396.366 34.0681 398.78 37.1782 401.944 39.3691C405.286 41.7911 409.339 43.0012 414.101 42.9995C418.983 42.9981 422.954 41.7631 426.015 39.2944L426.015 39.297ZM481.717 39.0636C485.241 36.4394 487.513 33.3207 488.532 29.7076L480.697 27.6902C479.917 29.947 478.397 31.8735 476.385 33.1565C474.091 34.6645 471.391 35.4337 468.648 35.3606C464.71 35.3606 461.502 33.9949 459.025 31.2635C456.56 28.5688 455.23 25.0265 455.309 21.3743C455.225 17.7686 456.549 14.272 458.999 11.6273C461.455 8.95534 464.672 7.61918 468.648 7.61884C471.396 7.54538 474.099 8.3261 476.385 9.85358C478.395 11.151 479.913 13.0853 480.697 15.3474L488.62 13.415C487.542 9.78149 485.241 6.63827 481.717 3.98532C478.194 1.33238 473.818 0.00591946 468.591 0.00591946C462.466 0.00591946 457.348 2.05329 453.236 6.14802C449.125 10.2427 447.07 15.3374 447.07 21.4319C447.07 27.5863 449.129 32.7184 453.247 36.8283C457.367 40.9462 462.54 43.0035 468.767 43C473.877 42.9983 478.194 41.6853 481.718 39.061L481.717 39.0636ZM534.694 21.4304C534.694 15.3358 532.639 10.2412 528.528 6.14643C524.416 2.05171 519.253 0.0040153 513.039 0.0033238C506.825 0.0033238 501.654 2.0507 497.523 6.14542C493.393 10.2401 491.327 15.3343 491.326 21.4278C491.326 27.5821 493.392 32.7143 497.523 36.8242C501.654 40.9421 506.825 42.9993 513.039 42.9959C519.252 42.9924 524.415 40.9317 528.528 36.8138C532.637 32.6908 534.693 27.5621 534.695 21.4278L534.694 21.4304ZM499.513 21.4304C499.411 17.7603 500.755 14.1973 503.254 11.5101C505.752 8.83812 509.008 7.50213 513.023 7.50213C517.037 7.50213 520.293 8.83812 522.791 11.5101C525.294 14.1954 526.64 17.7593 526.538 21.4304C526.538 25.448 525.289 28.7978 522.791 31.4798C520.293 34.1618 517.037 35.5033 513.023 35.5043C509.012 35.5043 505.756 34.1628 503.254 31.4798C500.762 28.7985 499.515 25.4487 499.513 21.4304ZM566.88 27.6316L546.131 0.811873H539.446V42.1635H547.546V15.2867L568.321 42.1624H574.975V0.810828H566.881V27.6305L566.88 27.6316ZM608.892 27.6316L588.148 0.811873H581.463V42.1635H589.557V15.2867L610.333 42.1624H616.986V0.810828H608.892V27.6305V27.6316ZM653.93 0.811873H623.474V42.1635H653.873V34.8405H631.398V24.691H650.904V17.5941H631.398V8.13538H653.93V0.810828L653.93 0.811873ZM691.288 39.0621C694.812 36.4378 697.083 33.3191 698.102 29.7061L690.267 27.6886C689.489 29.9464 687.969 31.8735 685.955 33.1549C683.662 34.663 680.962 35.4322 678.218 35.3591C674.285 35.3591 671.077 33.9934 668.595 31.2619C666.131 28.5672 664.8 25.025 664.88 21.3728C664.795 17.767 666.119 14.2704 668.569 11.6257C671.026 8.95376 674.242 7.6176 678.218 7.61726C680.966 7.5438 683.669 8.32455 685.955 9.85203C687.967 11.148 689.485 13.0828 690.267 15.3458L698.19 13.4134C697.112 9.77994 694.812 6.63672 691.288 3.98377C687.764 1.33083 683.388 0.00436839 678.161 0.00436839C672.036 0.00436839 666.918 2.05171 662.807 6.14643C658.696 10.2412 656.64 15.3358 656.64 21.4304C656.64 27.5847 658.701 32.7169 662.822 36.8268C666.942 40.9447 672.114 43.0019 678.338 42.9985C683.448 42.9978 687.764 41.6853 691.288 39.061L691.288 39.0621ZM698.19 0.811873V8.13538H712.047V42.1624H720.147V8.13538H734.004V0.810828H698.19V0.811873ZM767.978 0.811873H737.523V42.1635H767.921V34.8405H745.446V24.691H764.952V17.5941H745.446V8.13538H767.978V0.810828V0.811873ZM773.284 0.811873V42.1635H791.235C797.205 42.1635 801.992 40.2325 805.595 36.3704C809.202 32.5015 811.003 27.5399 811 21.4858C811 15.3536 809.198 10.3748 805.595 6.54943C801.992 2.72404 797.205 0.811174 791.235 0.810828H773.285L773.284 0.811873ZM781.322 34.8405V8.07938H791.06C794.594 8.07938 797.442 9.30004 799.605 11.7414C801.768 14.1827 802.847 17.374 802.844 21.3152C802.844 25.3346 801.764 28.5933 799.605 31.0913C797.446 33.5894 794.597 34.8392 791.06 34.841H781.322L781.322 34.8405Z" fill="#FFFFFE"/>
</svg>
